<svg width="179" height="183" viewBox="30 0 120 123" fill="none" xmlns="http://www.w3.org/2000/svg">
<g clip-path="url(#clip0_119:769)">
<path d="M96.3651 3.06881C85.7854 1.69802 75.0381 3.50532 65.4827 8.26208C55.9273 13.0188 47.9931 20.5113 42.684 29.7917C37.3748 39.0721 34.9291 49.7234 35.6564 60.3981C36.3836 71.0729 40.2511 81.2915 46.7695 89.7613C53.288 98.231 62.1645 104.571 72.2762 107.98C82.3879 111.389 93.2804 111.713 103.576 108.912C113.871 106.11 123.107 100.309 130.115 92.2416C137.122 84.1744 141.587 74.2038 142.944 63.591C144.759 49.3716 140.873 35.0109 132.14 23.6631C123.406 12.3152 110.539 4.90819 96.3651 3.06881Z" fill="white"/>
<path d="M121.846 28.456C121.769 28.4943 121.7 28.5476 121.644 28.6129C121.587 28.6782 121.544 28.7542 121.518 28.8363C121.491 28.9184 121.481 29.005 121.488 29.0911C121.496 29.1771 121.52 29.2608 121.56 29.3373C121.726 29.6777 121.791 30.0585 121.747 30.4348C121.704 30.811 121.555 31.1671 121.316 31.4609C121.242 31.5568 121.196 31.6714 121.182 31.7921C121.169 31.9128 121.189 32.0348 121.241 32.1447C121.292 32.2546 121.373 32.3481 121.474 32.4148C121.575 32.4815 121.693 32.5188 121.814 32.5227C121.911 32.5216 122.007 32.4992 122.095 32.457C122.183 32.4149 122.26 32.3539 122.322 32.2785C122.727 31.789 122.98 31.1918 123.052 30.5601C123.123 29.9283 123.009 29.2894 122.724 28.7215C122.684 28.6459 122.63 28.579 122.564 28.5247C122.498 28.4703 122.422 28.4296 122.34 28.405C122.259 28.3803 122.173 28.3721 122.088 28.3808C122.003 28.3896 121.921 28.4152 121.846 28.456Z" fill="#F36C3D"/>
<path d="M96.6933 0.467364C85.6015 -0.959848 74.3368 0.94401 64.3238 5.93818C54.3108 10.9324 45.9992 18.7925 40.44 28.5247C34.8808 38.2569 32.3238 49.424 33.0923 60.6138C33.8608 71.8037 37.9202 82.5136 44.7573 91.3894C51.5944 100.265 60.902 106.908 71.5032 110.478C82.1043 114.048 93.5228 114.385 104.315 111.445C115.107 108.506 124.787 102.423 132.132 93.9658C139.478 85.5082 144.157 75.0559 145.58 63.9307C147.487 49.0127 143.408 33.9457 134.24 22.0441C125.073 10.1425 111.566 2.38113 96.6933 0.467364ZM108.338 35.8463C107.29 35.8652 106.29 36.2871 105.543 37.0249L84.5934 58.0802L80.1155 53.5889C100.758 32.9264 104.485 32.6928 108.338 35.8463ZM85.4192 58.8235L106.348 37.8319C106.895 37.2866 107.635 36.9805 108.407 36.9805C109.178 36.9805 109.918 37.2866 110.466 37.8319C110.747 38.1073 110.969 38.4382 111.116 38.8036C111.264 39.1691 111.334 39.5613 111.323 39.9554C111.313 40.3592 111.219 40.7564 111.048 41.1219C110.876 41.4874 110.631 41.8133 110.328 42.079L88.1927 61.5948L85.4192 58.8235ZM86.9753 62.0938L81.7881 63.2193C81.7264 63.2351 81.6613 63.2299 81.603 63.2043C81.5447 63.1788 81.4966 63.1345 81.4662 63.0785C81.4358 63.0224 81.4249 62.9578 81.4353 62.8948C81.4457 62.8319 81.4767 62.7742 81.5234 62.7309L84.5616 59.6729L86.9753 62.0938ZM73.7639 59.9702L79.2898 54.4277L83.429 58.5793L74.1026 60.5967C74.0239 60.6167 73.9406 60.6086 73.8672 60.5737C73.7938 60.5388 73.7348 60.4794 73.7004 60.4056C73.6731 60.3701 73.6531 60.3295 73.6416 60.2862C73.63 60.243 73.6271 60.1978 73.633 60.1534C73.6389 60.109 73.6535 60.0662 73.6759 60.0275C73.6984 59.9887 73.7283 59.9549 73.7639 59.9277V59.9702ZM56.5826 88.6386C56.5157 88.6335 56.4518 88.6086 56.3991 88.567C56.3463 88.5254 56.307 88.469 56.2863 88.405C56.2647 88.3396 56.2612 88.2695 56.2761 88.2022C56.291 88.1349 56.3238 88.0729 56.371 88.0228L60.8277 83.5526L66.5865 89.3288L56.5826 88.6386ZM68.0156 82.7032C67.8023 82.8115 67.6317 82.989 67.5318 83.2068C67.4318 83.4247 67.4083 83.6701 67.4651 83.903L68.4179 88.0016C68.4456 88.1268 68.4322 88.2578 68.3796 88.3748C68.327 88.4918 68.2381 88.5886 68.1261 88.6507C68.0142 88.7129 67.8851 88.737 67.7584 88.7195C67.6316 88.702 67.5139 88.6438 67.4228 88.5537L61.6428 82.7563L79.3639 64.9819L87.9386 63.1344L92.0566 67.2647C86.1284 72.3826 78.0513 77.5748 68.0156 82.6289V82.7032ZM92.8929 66.5003L88.9337 62.5292L111.059 42.9497C111.264 42.7701 111.452 42.5709 111.62 42.3551C110.932 48.7152 102.071 57.698 92.8929 66.4259V66.5003ZM110.127 35.9525C108.92 34.7508 108.096 33.216 107.76 31.5434C107.425 29.8707 107.593 28.1358 108.243 26.5592C108.893 24.9826 109.996 23.6357 111.412 22.6897C112.828 21.7437 114.492 21.2414 116.193 21.2466C118.207 21.2449 120.159 21.9512 121.708 23.2428L114.107 30.8028C114.001 30.9102 113.94 31.0548 113.938 31.2063C113.938 31.2799 113.953 31.3526 113.982 31.4202C114.012 31.4877 114.054 31.5486 114.107 31.5991L119.983 37.5027C118.377 38.3016 116.562 38.5746 114.794 38.2831C113.026 37.9916 111.393 37.1504 110.127 35.8782V35.9525ZM122.269 35.9525C121.883 36.349 121.457 36.7047 120.999 37.0143L115.293 31.2169L122.523 23.9648C124.019 25.6018 124.827 27.7549 124.777 29.9748C124.728 32.1947 123.826 34.3097 122.259 35.8782L122.269 35.9525Z" fill="#FF6C37"/>
</g>
<defs>
<clipPath id="clip0_119:769">
<rect width="179" height="183" fill="white"/>
</clipPath>
</defs>
</svg>
