<?xml version="1.0" encoding="iso-8859-1"?>
<!-- Generator: Adobe Illustrator 19.0.0, SVG Export Plug-In . SVG Version: 6.00 Build 0)  -->
<svg version="1.1" id="Capa_1" xmlns="http://www.w3.org/2000/svg" xmlns:xlink="http://www.w3.org/1999/xlink" x="0px" y="0px"
	 viewBox="0 0 514 514" style="enable-background:new 0 0 512 512;" xml:space="preserve">
<g>
	<polygon style="fill:#FAFAFA;" points="192,289.121 176,289.089 176,289.121 	"/>
	<polygon style="fill:#FAFAFA;" points="336,289.121 352,289.121 336,289.089 	"/>
</g>

<g>
	<circle style="fill:#FAFAFA;" cx="432" cy="97.121" r="16"/>
	<circle style="fill:#FAFAFA;" cx="176" cy="289.121" r="32"/>
	<path style="fill:#FAFAFA;" d="M329.888,395.265c-22.08,15.968-48,23.968-73.888,23.968s-51.808-8-73.888-23.968
		c-7.168-5.184-8.768-15.2-3.584-22.336s15.2-8.736,22.336-3.584c32.992,23.84,77.28,23.904,110.272,0
		c7.136-5.152,17.12-3.616,22.336,3.584C338.656,380.097,337.024,390.081,329.888,395.265z"/>
	<circle style="fill:#FAFAFA;" cx="336" cy="289.121" r="32"/>
</g>
</svg>
